<svg width="228" height="229" xmlns="http://www.w3.org/2000/svg" xmlns:xlink="http://www.w3.org/1999/xlink" xml:space="preserve" overflow="hidden"><defs><linearGradient x1="11.1689" y1="50.583" x2="32.4361" y2="71.8691" gradientUnits="userSpaceOnUse" spreadMethod="pad" id="fill0"><stop offset="0" stop-color="#FFF386"/><stop offset="0.49" stop-color="#FFC339"/><stop offset="0.94805" stop-color="#A2B030"/><stop offset="1" stop-color="#A2B030"/></linearGradient><linearGradient x1="9.62181" y1="157.333" x2="30.9016" y2="178.619" gradientUnits="userSpaceOnUse" spreadMethod="pad" id="fill1"><stop offset="0" stop-color="#FFF386"/><stop offset="0.49" stop-color="#FFC339"/><stop offset="0.94805" stop-color="#A2B030"/><stop offset="1" stop-color="#A2B030"/></linearGradient><linearGradient x1="102.872" y1="202.275" x2="124.139" y2="223.542" gradientUnits="userSpaceOnUse" spreadMethod="pad" id="fill2"><stop offset="0" stop-color="#FFF386"/><stop offset="0.49" stop-color="#FFC339"/><stop offset="0.94805" stop-color="#A2B030"/><stop offset="1" stop-color="#A2B030"/></linearGradient><linearGradient x1="106.879" y1="4.39069" x2="128.14" y2="25.6768" gradientUnits="userSpaceOnUse" spreadMethod="pad" id="fill3"><stop offset="0" stop-color="#FFF386"/><stop offset="0.49" stop-color="#FFC339"/><stop offset="0.94805" stop-color="#A2B030"/><stop offset="1" stop-color="#A2B030"/></linearGradient><linearGradient x1="197.036" y1="47.9467" x2="218.316" y2="69.2328" gradientUnits="userSpaceOnUse" spreadMethod="pad" id="fill4"><stop offset="0" stop-color="#FFF386"/><stop offset="0.49" stop-color="#FFC339"/><stop offset="0.94805" stop-color="#A2B030"/><stop offset="1" stop-color="#A2B030"/></linearGradient><linearGradient x1="197.045" y1="162.201" x2="218.306" y2="183.487" gradientUnits="userSpaceOnUse" spreadMethod="pad" id="fill5"><stop offset="0" stop-color="#FFF386"/><stop offset="0.49" stop-color="#FFC339"/><stop offset="0.94805" stop-color="#A2B030"/><stop offset="1" stop-color="#A2B030"/></linearGradient><linearGradient x1="73.8294" y1="74.9776" x2="156.094" y2="156.122" gradientUnits="userSpaceOnUse" spreadMethod="pad" id="fill6"><stop offset="0" stop-color="#FFF386"/><stop offset="0.49" stop-color="#FFC339"/><stop offset="0.94805" stop-color="#A2B030"/><stop offset="1" stop-color="#A2B030"/></linearGradient><linearGradient x1="16.1838" y1="114.204" x2="27.4212" y2="115.497" gradientUnits="userSpaceOnUse" spreadMethod="pad" id="fill7"><stop offset="0" stop-color="#FFF386"/><stop offset="0.49" stop-color="#FFC339"/><stop offset="0.94805" stop-color="#A2B030"/><stop offset="1" stop-color="#A2B030"/></linearGradient><linearGradient x1="58.1346" y1="16.3226" x2="77.1692" y2="54.8917" gradientUnits="userSpaceOnUse" spreadMethod="pad" id="fill8"><stop offset="0" stop-color="#FFF386"/><stop offset="0.49" stop-color="#FFC339"/><stop offset="0.94805" stop-color="#A2B030"/><stop offset="1" stop-color="#A2B030"/></linearGradient><linearGradient x1="54.2493" y1="173.288" x2="76.7795" y2="212.103" gradientUnits="userSpaceOnUse" spreadMethod="pad" id="fill9"><stop offset="0" stop-color="#FFF386"/><stop offset="0.49" stop-color="#FFC339"/><stop offset="0.94805" stop-color="#A2B030"/><stop offset="1" stop-color="#A2B030"/></linearGradient><linearGradient x1="152.891" y1="177.535" x2="171.875" y2="214.296" gradientUnits="userSpaceOnUse" spreadMethod="pad" id="fill10"><stop offset="0" stop-color="#FFF386"/><stop offset="0.49" stop-color="#FFC339"/><stop offset="0.94805" stop-color="#A2B030"/><stop offset="1" stop-color="#A2B030"/></linearGradient><linearGradient x1="152.519" y1="16.4146" x2="174.786" y2="53.6598" gradientUnits="userSpaceOnUse" spreadMethod="pad" id="fill11"><stop offset="0" stop-color="#FFF386"/><stop offset="0.49" stop-color="#FFC339"/><stop offset="0.94805" stop-color="#A2B030"/><stop offset="1" stop-color="#A2B030"/></linearGradient><linearGradient x1="204.673" y1="115.143" x2="215.978" y2="116.304" gradientUnits="userSpaceOnUse" spreadMethod="pad" id="fill12"><stop offset="0" stop-color="#FFF386"/><stop offset="0.49" stop-color="#FFC339"/><stop offset="0.94805" stop-color="#A2B030"/><stop offset="1" stop-color="#A2B030"/></linearGradient></defs><g transform="translate(-237 -299)"><path d="M21.8025 76.2642C13.493 76.2642 6.75094 69.5222 6.75094 61.2127 6.75094 52.9031 13.493 46.1878 21.8025 46.1878 30.112 46.1878 36.8541 52.9298 36.8541 61.2127 36.8541 69.4955 30.112 76.2642 21.8025 76.2642Z" fill="url(#fill0)" transform="matrix(1 0 0 1.00439 237 299)"/><path d="M20.2617 183.023C11.9522 183.023 5.21016 176.281 5.21016 167.981 5.21016 159.68 11.9522 152.929 20.2617 152.929 28.5713 152.929 35.3133 159.698 35.3133 167.981 35.3133 176.264 28.5445 183.023 20.2617 183.023Z" fill="url(#fill1)" transform="matrix(1 0 0 1.00439 237 299)"/><path d="M113.492 227.947C105.21 227.947 98.4675 221.205 98.4675 212.895 98.4675 204.585 105.21 197.87 113.492 197.87 121.775 197.87 128.544 204.612 128.544 212.895 128.544 221.178 121.802 227.947 113.492 227.947Z" fill="url(#fill2)" transform="matrix(1 0 0 1.00439 237 299)"/><path d="M117.509 30.0675C109.2 30.0675 102.458 23.3255 102.458 15.0516 102.458 6.77766 109.2 0 117.509 0 125.819 0 132.561 6.74203 132.561 15.0516 132.561 23.3611 125.792 30.0675 117.509 30.0675Z" fill="url(#fill3)" transform="matrix(1 0 0 1.00439 237 299)"/><path d="M207.676 73.6369C199.366 73.6369 192.624 66.8681 192.624 58.5942 192.624 50.3203 199.366 43.5427 207.676 43.5427 215.985 43.5427 222.728 50.3114 222.728 58.5942 222.728 66.877 215.985 73.6369 207.676 73.6369Z" fill="url(#fill4)" transform="matrix(1 0 0 1.00439 237 299)"/><path d="M207.676 187.877C199.366 187.877 192.624 181.135 192.624 172.835 192.624 164.534 199.366 157.81 207.676 157.81 215.985 157.81 222.728 164.552 222.728 172.835 222.728 181.118 215.985 187.877 207.676 187.877Z" fill="url(#fill5)" transform="matrix(1 0 0 1.00439 237 299)"/><path d="M153.66 158.959 153.66 130.779 172.336 123.503 172.336 151.023 153.66 158.959M57.5789 120.27 77.0213 128.98 77.0213 157.587 57.5789 148.503 57.5789 120.261 57.5789 120.27M133.184 64.9087 115.879 71.535 97.3186 63.8489 114.882 57.3741 133.184 64.9087M118.996 135.633 118.996 106.706 145.608 95.5641 145.608 125.266 118.996 135.633M118.996 144.308 145.608 133.914 145.608 162.388 118.996 173.725 118.996 144.308M110.918 144.165 110.918 173.458 85.1081 161.372 85.1081 132.596 110.918 144.157 110.918 144.165M85.1081 94.6823 110.918 106.59 110.918 135.313 85.1081 123.752 85.1081 94.6823M82.1423 84.4313 64.0716 76.095 86.1413 67.9636 104.898 75.7298 82.1423 84.4402 82.1423 84.4313M138.706 89.7127 115.033 99.5986 92.3934 89.1427 115.781 80.2364 138.706 89.7127M149.215 85.3219 126.772 76.0059 144.103 69.3797 165.861 78.3483 149.215 85.313 149.215 85.3219M57.5878 82.0088 77.0302 90.9684 77.0302 120.128 57.5878 111.417 57.5878 82.0088M172.345 114.81 153.668 122.096 153.668 92.1975 172.345 84.3778 172.345 114.81" fill="url(#fill6)" transform="matrix(1 0 0 1.00439 237 299)"/><path d="M25.8281 149.821 25.8281 79.8713C24.5456 80.1295 23.1741 80.2988 21.8025 80.2988 20.4309 80.2988 19.0594 80.1295 17.7769 79.8713L17.7769 149.171C18.5784 149.064 19.4067 148.912 20.2617 148.912 22.2033 148.912 24.0558 149.287 25.8281 149.83L25.8281 149.821Z" fill="url(#fill7)" transform="matrix(1 0 0 1.00439 237 299)"/><path d="M38.7066 52.5647 102.012 26.0686C100.445 23.8777 99.3314 21.3928 98.7881 18.6497L33.2916 46.0898C35.5716 47.8266 37.4062 50.0264 38.7155 52.5647L38.7066 52.5647Z" fill="url(#fill8)" transform="matrix(1 0 0 1.00439 237 299)"/><path d="M38.1633 174.349C37.2192 176.94 35.7942 179.31 33.9061 181.26L94.6111 211.043C94.8694 208.246 95.7511 205.619 97.1227 203.312L38.1633 174.358 38.1633 174.349Z" fill="url(#fill9)" transform="matrix(1 0 0 1.00439 237 299)"/><path d="M189.863 179.461 130.503 204.443C131.706 206.865 132.445 209.52 132.534 212.378L194.263 186.363C192.322 184.448 190.834 182.079 189.863 179.452L189.863 179.461Z" fill="url(#fill10)" transform="matrix(1 0 0 1.00439 237 299)"/><path d="M189.552 52.912C190.38 50.2847 191.752 47.9156 193.551 45.885L136.355 17.1623C136.043 19.9589 135.152 22.5863 133.754 24.893L189.543 52.9031 189.552 52.912Z" fill="url(#fill11)" transform="matrix(1 0 0 1.00439 237 299)"/><path d="M206.287 77.5289 206.287 153.909C206.768 153.882 207.204 153.766 207.685 153.766 210.054 153.766 212.28 154.256 214.365 155.058L214.365 76.3889C212.28 77.1905 210.054 77.6714 207.685 77.6714 207.204 77.6714 206.768 77.5556 206.287 77.5289Z" fill="url(#fill12)" transform="matrix(1 0 0 1.00439 237 299)"/></g></svg>